<svg id="drawing" xmlns="http://www.w3.org/2000/svg" version="1.1" xmlns:xlink="http://www.w3.org/1999/xlink" width="808" height="444" viewBox="86 95 808 444"><defs id="SvgjsDefs1001"><marker id="SvgjsMarker1045" markerWidth="16.23606797749979" markerHeight="10.550836550532098" refX="-1" refY="3.8990363547948754" viewBox="-1 -1.3763819204711738 16.23606797749979 10.550836550532098" orient="auto" markerUnits="userSpaceOnUse"><path id="SvgjsPath1046" d="M12 3.899036407470703L0 7.798072814941406V0Z " stroke="#323232" stroke-width="2" fill="#323232" transform="matrix(1,0,0,1,0,0)"></path></marker><marker id="SvgjsMarker1057" markerWidth="16.23606797749979" markerHeight="10.550836550532098" refX="-1" refY="3.8990363547948754" viewBox="-1 -1.3763819204711738 16.23606797749979 10.550836550532098" orient="auto" markerUnits="userSpaceOnUse"><path id="SvgjsPath1058" d="M12 3.899036407470703L0 7.798072814941406V0Z " stroke="#323232" stroke-width="2" fill="#323232" transform="matrix(1,0,0,1,0,0)"></path></marker><marker id="SvgjsMarker1064" markerWidth="16.23606797749979" markerHeight="10.550836550532098" refX="-1" refY="3.8990363547948754" viewBox="-1 -1.3763819204711738 16.23606797749979 10.550836550532098" orient="auto" markerUnits="userSpaceOnUse"><path id="SvgjsPath1065" d="M12 3.899036407470703L0 7.798072814941406V0Z " stroke="#323232" stroke-width="2" fill="#323232" transform="matrix(1,0,0,1,0,0)"></path></marker><marker id="SvgjsMarker1076" markerWidth="16.23606797749979" markerHeight="10.550836550532098" refX="-1" refY="3.8990363547948754" viewBox="-1 -1.3763819204711738 16.23606797749979 10.550836550532098" orient="auto" markerUnits="userSpaceOnUse"><path id="SvgjsPath1077" d="M12 3.899036407470703L0 7.798072814941406V0Z " stroke="#323232" stroke-width="2" fill="#323232" transform="matrix(1,0,0,1,0,0)"></path></marker><marker id="SvgjsMarker1083" markerWidth="16.23606797749979" markerHeight="10.550836550532098" refX="-1" refY="3.8990363547948754" viewBox="-1 -1.3763819204711738 16.23606797749979 10.550836550532098" orient="auto" markerUnits="userSpaceOnUse"><path id="SvgjsPath1084" d="M12 3.899036407470703L0 7.798072814941406V0Z " stroke="#323232" stroke-width="2" fill="#323232" transform="matrix(1,0,0,1,0,0)"></path></marker><marker id="SvgjsMarker1090" markerWidth="16.23606797749979" markerHeight="10.550836550532098" refX="-1" refY="3.8990363547948754" viewBox="-1 -1.3763819204711738 16.23606797749979 10.550836550532098" orient="auto" markerUnits="userSpaceOnUse"><path id="SvgjsPath1091" d="M12 3.899036407470703L0 7.798072814941406V0Z " stroke="#323232" stroke-width="2" fill="#323232" transform="matrix(1,0,0,1,0,0)"></path></marker><marker id="SvgjsMarker1097" markerWidth="16.23606797749979" markerHeight="10.550836550532098" refX="-1" refY="3.8990363547948754" viewBox="-1 -1.3763819204711738 16.23606797749979 10.550836550532098" orient="auto" markerUnits="userSpaceOnUse"><path id="SvgjsPath1098" d="M12 3.899036407470703L0 7.798072814941406V0Z " stroke="#323232" stroke-width="2" fill="#323232" transform="matrix(1,0,0,1,0,0)"></path></marker><marker id="SvgjsMarker1104" markerWidth="16.23606797749979" markerHeight="10.550836550532098" refX="-1" refY="3.8990363547948754" viewBox="-1 -1.3763819204711738 16.23606797749979 10.550836550532098" orient="auto" markerUnits="userSpaceOnUse"><path id="SvgjsPath1105" d="M12 3.899036407470703L0 7.798072814941406V0Z " stroke="#323232" stroke-width="2" fill="#323232" transform="matrix(1,0,0,1,0,0)"></path></marker><marker id="SvgjsMarker1111" markerWidth="16.23606797749979" markerHeight="10.550836550532098" refX="-1" refY="3.8990363547948754" viewBox="-1 -1.3763819204711738 16.23606797749979 10.550836550532098" orient="auto" markerUnits="userSpaceOnUse"><path id="SvgjsPath1112" d="M12 3.899036407470703L0 7.798072814941406V0Z " stroke="#323232" stroke-width="2" fill="#323232" transform="matrix(1,0,0,1,0,0)"></path></marker><marker id="SvgjsMarker1118" markerWidth="16.23606797749979" markerHeight="10.550836550532098" refX="-1" refY="3.8990363547948754" viewBox="-1 -1.3763819204711738 16.23606797749979 10.550836550532098" orient="auto" markerUnits="userSpaceOnUse"><path id="SvgjsPath1119" d="M12 3.899036407470703L0 7.798072814941406V0Z " stroke="#323232" stroke-width="2" fill="#323232" transform="matrix(1,0,0,1,0,0)"></path></marker><marker id="SvgjsMarker1125" markerWidth="16.23606797749979" markerHeight="10.550836550532098" refX="-1" refY="3.8990363547948754" viewBox="-1 -1.3763819204711738 16.23606797749979 10.550836550532098" orient="auto" markerUnits="userSpaceOnUse"><path id="SvgjsPath1126" d="M12 3.899036407470703L0 7.798072814941406V0Z " stroke="#323232" stroke-width="2" fill="#323232" transform="matrix(1,0,0,1,0,0)"></path></marker><marker id="SvgjsMarker1136" markerWidth="16.23606797749979" markerHeight="10.550836550532098" refX="-1" refY="3.8990363547948754" viewBox="-1 -1.3763819204711738 16.23606797749979 10.550836550532098" orient="auto" markerUnits="userSpaceOnUse"><path id="SvgjsPath1137" d="M12 3.899036407470703L0 7.798072814941406V0Z " stroke="#323232" stroke-width="2" fill="#323232" transform="matrix(1,0,0,1,0,0)"></path></marker></defs><g id="SvgjsG1007"><path id="SvgjsPath1008" d="M86 95H894V539H86V95Z " fill-opacity="0" fill="none"></path><g id="SvgjsG1009"><g id="SvgjsG1010" transform="translate(106 320)" opacity="1"><path id="SvgjsPath1011" d="M0 0L100 0L100 70L0 70Z " stroke-dasharray="none" stroke="#323232" stroke-width="2" fill="#ffffff" opacity="1"></path><g id="SvgjsG1012" transform="matrix(1 0 0 1 10 25.625)" fill="#ffffff"><text id="SvgjsText1013" font-family="微软雅黑,黑体,Arial,宋体" fill="#000000" font-size="15" font-weight="normal" font-style="normal" text-anchor="middle" text-decoration="blink" x="40" y="13.5">入门</text></g></g><g id="SvgjsG1014" transform="translate(259 261)" opacity="1"><path id="SvgjsPath1015" d="M0 0L100 0L100 70L0 70Z " stroke-dasharray="none" stroke="#323232" stroke-width="2" fill="#ffffff" opacity="1"></path><g id="SvgjsG1016" transform="matrix(1 0 0 1 10 25.625)" fill="#ffffff"><text id="SvgjsText1017" font-family="微软雅黑,黑体,Arial,宋体" fill="#000000" font-size="15" font-weight="normal" font-style="normal" text-anchor="middle" text-decoration="blink" x="40" y="13.5">Cookbook</text></g></g><g id="SvgjsG1018" transform="translate(259 379)" opacity="1"><path id="SvgjsPath1019" d="M0 0L100 0L100 70L0 70Z " stroke-dasharray="none" stroke="#323232" stroke-width="2" fill="#ffffff" opacity="1"></path><g id="SvgjsG1020" transform="matrix(1 0 0 1 10 25.625)" fill="#ffffff"><text id="SvgjsText1021" font-family="微软雅黑,黑体,Arial,宋体" fill="#000000" font-size="15" font-weight="normal" font-style="normal" text-anchor="middle" text-decoration="blink" x="40" y="13.5">实战/实践</text></g></g><g id="SvgjsG1022" transform="translate(425 320)" opacity="1"><path id="SvgjsPath1023" d="M0 0L100 0L100 70L0 70Z " stroke-dasharray="none" stroke="#323232" stroke-width="2" fill="#ffffff" opacity="1"></path><g id="SvgjsG1024" transform="matrix(1 0 0 1 10 25.625)" fill="#ffffff"><text id="SvgjsText1025" font-family="微软雅黑,黑体,Arial,宋体" fill="#000000" font-size="15" font-weight="normal" font-style="normal" text-anchor="middle" text-decoration="blink" x="40" y="13.5">完成工作</text></g></g><g id="SvgjsG1026" transform="translate(425 449)" opacity="1"><path id="SvgjsPath1027" d="M0 0L100 0L100 70L0 70Z " stroke-dasharray="none" stroke="#323232" stroke-width="2" fill="#ffffff" opacity="1"></path><g id="SvgjsG1028" transform="matrix(1 0 0 1 10 25.625)" fill="#ffffff"><text id="SvgjsText1029" font-family="微软雅黑,黑体,Arial,宋体" fill="#000000" font-size="15" font-weight="normal" font-style="normal" text-anchor="middle" text-decoration="blink" x="40" y="13.5">专家编程</text></g></g><g id="SvgjsG1030" transform="translate(600 261)" opacity="1"><path id="SvgjsPath1031" d="M0 0L100 0L100 70L0 70Z " stroke-dasharray="none" stroke="#323232" stroke-width="2" fill="#ffffff" opacity="1"></path><g id="SvgjsG1032" transform="matrix(1 0 0 1 10 25.625)" fill="#ffffff"><text id="SvgjsText1033" font-family="微软雅黑,黑体,Arial,宋体" fill="#000000" font-size="15" font-weight="normal" font-style="normal" text-anchor="middle" text-decoration="blink" x="40" y="13.5">更好的代码</text></g></g><g id="SvgjsG1034" transform="translate(600 379)" opacity="1"><path id="SvgjsPath1035" d="M0 0L100 0L100 70L0 70Z " stroke-dasharray="none" stroke="#323232" stroke-width="2" fill="#ffffff" opacity="1"></path><g id="SvgjsG1036" transform="matrix(1 0 0 1 10 25.625)" fill="#ffffff"><text id="SvgjsText1037" font-family="微软雅黑,黑体,Arial,宋体" fill="#000000" font-size="15" font-weight="normal" font-style="normal" text-anchor="middle" text-decoration="blink" x="40" y="13.5">领域/业务</text></g></g><g id="SvgjsG1038" transform="translate(774 320)" opacity="1"><path id="SvgjsPath1039" d="M0 0L100 0L100 70L0 70Z " stroke-dasharray="none" stroke="#323232" stroke-width="2" fill="#ffffff" opacity="1"></path><g id="SvgjsG1040" transform="matrix(1 0 0 1 10 16.25)" fill="#ffffff"><text id="SvgjsText1041" font-family="微软雅黑,黑体,Arial,宋体" fill="#000000" font-size="15" font-weight="normal" font-style="normal" text-anchor="middle" text-decoration="blink" x="40" y="13.5">创建</text><text id="SvgjsText1042" font-family="微软雅黑,黑体,Arial,宋体" fill="#000000" font-size="15" font-weight="normal" font-style="normal" text-anchor="middle" text-decoration="blink" x="40" y="32.25">领域框架</text></g></g><g id="SvgjsG1043"><path id="SvgjsPath1044" d="M475 390L475 419.5L475 419.5L475 433.7639465332031 " stroke-dasharray="none" stroke="#323232" stroke-width="2" fill="none" marker-end="url(#SvgjsMarker1045)"></path><g id="SvgjsG1047" transform="matrix(1 0 0 1 475 402.50696601125014)" fill="#ffffff"><path id="SvgjsPath1048" d="M0 0H0V0H0V0Z " fill="#ffffff" transform="translate(0 0)"></path><text id="SvgjsText1049" font-family="Microsoft Yahei,宋体" fill="#000000" font-size="15" font-weight="normal" font-style="normal" text-anchor="middle" text-decoration="blink" x="0" y="0"></text></g></g><g id="SvgjsG1050" transform="translate(774 449)" opacity="1"><path id="SvgjsPath1051" d="M0 0L100 0L100 70L0 70Z " stroke-dasharray="none" stroke="#323232" stroke-width="2" fill="#ffffff" opacity="1"></path><g id="SvgjsG1052" transform="matrix(1 0 0 1 10 16.25)" fill="#ffffff"><text id="SvgjsText1053" font-family="微软雅黑,黑体,Arial,宋体" fill="#000000" font-size="15" font-weight="normal" font-style="normal" text-anchor="middle" text-decoration="blink" x="40" y="13.5">创建</text><text id="SvgjsText1054" font-family="微软雅黑,黑体,Arial,宋体" fill="#000000" font-size="15" font-weight="normal" font-style="normal" text-anchor="middle" text-decoration="blink" x="40" y="32.25">技术框架</text></g></g><g id="SvgjsG1055"><path id="SvgjsPath1056" d="M206 355L232.5 355L232.5 296L243.76393127441406 296 " stroke-dasharray="none" stroke="#323232" stroke-width="2" fill="none" marker-end="url(#SvgjsMarker1057)"></path><g id="SvgjsG1059" transform="matrix(1 0 0 1 232.5 323.7430339887499)" fill="#ffffff"><path id="SvgjsPath1060" d="M0 0H0V0H0V0Z " fill="#ffffff" transform="translate(0 0)"></path><text id="SvgjsText1061" font-family="Microsoft Yahei,宋体" fill="#000000" font-size="15" font-weight="normal" font-style="normal" text-anchor="middle" text-decoration="blink" x="0" y="0"></text></g></g><g id="SvgjsG1062"><path id="SvgjsPath1063" d="M206 355L232.5 355L232.5 414L243.76393127441406 414 " stroke-dasharray="none" stroke="#323232" stroke-width="2" fill="none" marker-end="url(#SvgjsMarker1064)"></path><g id="SvgjsG1066" transform="matrix(1 0 0 1 232.5 367.5069660112501)" fill="#ffffff"><path id="SvgjsPath1067" d="M0 0H0V0H0V0Z " fill="#ffffff" transform="translate(0 0)"></path><text id="SvgjsText1068" font-family="Microsoft Yahei,宋体" fill="#000000" font-size="15" font-weight="normal" font-style="normal" text-anchor="middle" text-decoration="blink" x="0" y="0"></text></g></g><g id="SvgjsG1069" transform="translate(425 185)" opacity="1"><path id="SvgjsPath1070" d="M0 0L100 0L100 70L0 70Z " stroke-dasharray="none" stroke="#323232" stroke-width="2" fill="#ffffff" opacity="1"></path><g id="SvgjsG1071" transform="matrix(1 0 0 1 10 16.25)" fill="#ffffff"><text id="SvgjsText1072" font-family="微软雅黑,黑体,Arial,宋体" fill="#000000" font-size="15" font-weight="normal" font-style="normal" text-anchor="middle" text-decoration="blink" x="40" y="13.5">Code</text><text id="SvgjsText1073" font-family="微软雅黑,黑体,Arial,宋体" fill="#000000" font-size="15" font-weight="normal" font-style="normal" text-anchor="middle" text-decoration="blink" x="40" y="32.25">Monkey</text></g></g><g id="SvgjsG1074"><path id="SvgjsPath1075" d="M475 320L475 287.5L475 287.5L475 270.2360534667969 " stroke-dasharray="none" stroke="#323232" stroke-width="2" fill="none" marker-end="url(#SvgjsMarker1076)"></path><g id="SvgjsG1078" transform="matrix(1 0 0 1 475 285.74303398874986)" fill="#ffffff"><path id="SvgjsPath1079" d="M0 0H0V0H0V0Z " fill="#ffffff" transform="translate(0 0)"></path><text id="SvgjsText1080" font-family="Microsoft Yahei,宋体" fill="#000000" font-size="15" font-weight="normal" font-style="normal" text-anchor="middle" text-decoration="blink" x="0" y="0"></text></g></g><g id="SvgjsG1081"><path id="SvgjsPath1082" d="M359 296L392 296L392 355L409.7639465332031 355 " stroke-dasharray="none" stroke="#323232" stroke-width="2" fill="none" marker-end="url(#SvgjsMarker1083)"></path><g id="SvgjsG1085" transform="matrix(1 0 0 1 392 308.50696601125014)" fill="#ffffff"><path id="SvgjsPath1086" d="M0 0H0V0H0V0Z " fill="#ffffff" transform="translate(0 0)"></path><text id="SvgjsText1087" font-family="Microsoft Yahei,宋体" fill="#000000" font-size="15" font-weight="normal" font-style="normal" text-anchor="middle" text-decoration="blink" x="0" y="0"></text></g></g><g id="SvgjsG1088"><path id="SvgjsPath1089" d="M359 414L392 414L392 355L409.7639465332031 355 " stroke-dasharray="none" stroke="#323232" stroke-width="2" fill="none" marker-end="url(#SvgjsMarker1090)"></path><g id="SvgjsG1092" transform="matrix(1 0 0 1 392 382.74303398874986)" fill="#ffffff"><path id="SvgjsPath1093" d="M0 0H0V0H0V0Z " fill="#ffffff" transform="translate(0 0)"></path><text id="SvgjsText1094" font-family="Microsoft Yahei,宋体" fill="#000000" font-size="15" font-weight="normal" font-style="normal" text-anchor="middle" text-decoration="blink" x="0" y="0"></text></g></g><g id="SvgjsG1095"><path id="SvgjsPath1096" d="M525 355L562.5 355L562.5 296L584.763916015625 296 " stroke-dasharray="none" stroke="#323232" stroke-width="2" fill="none" marker-end="url(#SvgjsMarker1097)"></path><g id="SvgjsG1099" transform="matrix(1 0 0 1 562.5 323.7430339887499)" fill="#ffffff"><path id="SvgjsPath1100" d="M0 0H0V0H0V0Z " fill="#ffffff" transform="translate(0 0)"></path><text id="SvgjsText1101" font-family="Microsoft Yahei,宋体" fill="#000000" font-size="15" font-weight="normal" font-style="normal" text-anchor="middle" text-decoration="blink" x="0" y="0"></text></g></g><g id="SvgjsG1102"><path id="SvgjsPath1103" d="M525 355L562.5 355L562.5 414L584.763916015625 414 " stroke-dasharray="none" stroke="#323232" stroke-width="2" fill="none" marker-end="url(#SvgjsMarker1104)"></path><g id="SvgjsG1106" transform="matrix(1 0 0 1 562.5 367.5069660112501)" fill="#ffffff"><path id="SvgjsPath1107" d="M0 0H0V0H0V0Z " fill="#ffffff" transform="translate(0 0)"></path><text id="SvgjsText1108" font-family="Microsoft Yahei,宋体" fill="#000000" font-size="15" font-weight="normal" font-style="normal" text-anchor="middle" text-decoration="blink" x="0" y="0"></text></g></g><g id="SvgjsG1109"><path id="SvgjsPath1110" d="M525 484L649.5 484L649.5 484L758.763916015625 484 " stroke-dasharray="none" stroke="#323232" stroke-width="2" fill="none" marker-end="url(#SvgjsMarker1111)"></path><g id="SvgjsG1113" transform="matrix(1 0 0 1 641.8819660112501 474.625)" fill="#ffffff"><path id="SvgjsPath1114" d="M0 0H0V0H0V0Z " fill="#ffffff" transform="translate(0 0)"></path><text id="SvgjsText1115" font-family="Microsoft Yahei,宋体" fill="#000000" font-size="15" font-weight="normal" font-style="normal" text-anchor="middle" text-decoration="blink" x="0" y="0"></text></g></g><g id="SvgjsG1116"><path id="SvgjsPath1117" d="M700 296L737 296L737 355L758.763916015625 355 " stroke-dasharray="none" stroke="#323232" stroke-width="2" fill="none" marker-end="url(#SvgjsMarker1118)"></path><g id="SvgjsG1120" transform="matrix(1 0 0 1 737 308.5069660112501)" fill="#ffffff"><path id="SvgjsPath1121" d="M0 0H0V0H0V0Z " fill="#ffffff" transform="translate(0 0)"></path><text id="SvgjsText1122" font-family="Microsoft Yahei,宋体" fill="#000000" font-size="15" font-weight="normal" font-style="normal" text-anchor="middle" text-decoration="blink" x="0" y="0"></text></g></g><g id="SvgjsG1123"><path id="SvgjsPath1124" d="M700 414L737 414L737 355L758.763916015625 355 " stroke-dasharray="none" stroke="#323232" stroke-width="2" fill="none" marker-end="url(#SvgjsMarker1125)"></path><g id="SvgjsG1127" transform="matrix(1 0 0 1 737 382.7430339887499)" fill="#ffffff"><path id="SvgjsPath1128" d="M0 0H0V0H0V0Z " fill="#ffffff" transform="translate(0 0)"></path><text id="SvgjsText1129" font-family="Microsoft Yahei,宋体" fill="#000000" font-size="15" font-weight="normal" font-style="normal" text-anchor="middle" text-decoration="blink" x="0" y="0"></text></g></g><g id="SvgjsG1130" transform="translate(600 115)" opacity="1"><path id="SvgjsPath1131" d="M0 0L100 0L100 70L0 70Z " stroke-dasharray="none" stroke="#323232" stroke-width="2" fill="#ffffff" opacity="1"></path><g id="SvgjsG1132" transform="matrix(1 0 0 1 10 25.625)" fill="#ffffff"><text id="SvgjsText1133" font-family="微软雅黑,黑体,Arial,宋体" fill="#000000" font-size="15" font-weight="normal" font-style="normal" text-anchor="middle" text-decoration="blink" x="40" y="13.5">模式</text></g></g><g id="SvgjsG1134"><path id="SvgjsPath1135" d="M650 261L650 223L650 223L650 200.23606872558594 " stroke-dasharray="none" stroke="#323232" stroke-width="2" fill="none" marker-end="url(#SvgjsMarker1136)"></path><g id="SvgjsG1138" transform="matrix(1 0 0 1 650 222.49303398874991)" fill="#ffffff"><path id="SvgjsPath1139" d="M0 0H0V0H0V0Z " fill="#ffffff" transform="translate(0 0)"></path><text id="SvgjsText1140" font-family="Microsoft Yahei,宋体" fill="#000000" font-size="13" font-weight="normal" font-style="normal" text-anchor="middle" text-decoration="blink" x="0" y="0"></text></g></g></g></g></svg>