<?xml version="1.0" standalone="no"?>
<svg xmlns:xlink="http://www.w3.org/1999/xlink" xmlns="http://www.w3.org/2000/svg" id="cd" width="960" height="400"><g><g class="output"><g class="clusters"/><g class="edgePaths"><g class="edgePath" style="opacity: 1;"><path class="path" d="M110,60L109.99999999999999,64.16666666666667C110,68.33333333333333,110,76.66666666666666,109.99999999999999,84.99999999999999C110,93.33333333333333,110,101.66666666666666,109.99999999999999,105.83333333333333L110,110" marker-end="url(http://localhost:63342/booktree/index.html?_ijt=37b2np2to8gdu0ov181kjbl9sn#arrowhead86)" style="fill: none;"/><defs><marker id="arrowhead86" viewBox="0 0 10 10" refX="9" refY="5" markerUnits="strokeWidth" markerWidth="8" markerHeight="6" orient="auto"><path d="M 0 0 L 10 5 L 0 10 z" style="stroke-width: 1; stroke-dasharray: 1, 0;"/></marker></defs></g><g class="edgePath" style="opacity: 1;"><path class="path" d="M380,60L379.99999999999994,64.16666666666667C380,68.33333333333333,380,76.66666666666666,390.2272727272727,84.99999999999999C400.45454545454544,93.33333333333333,420.9090909090909,101.66666666666666,431.1363636363636,105.83333333333333L441.3636363636364,110" marker-end="url(http://localhost:63342/booktree/index.html?_ijt=37b2np2to8gdu0ov181kjbl9sn#arrowhead87)" style="fill: none;"/><defs><marker id="arrowhead87" viewBox="0 0 10 10" refX="9" refY="5" markerUnits="strokeWidth" markerWidth="8" markerHeight="6" orient="auto"><path d="M 0 0 L 10 5 L 0 10 z" style="stroke-width: 1; stroke-dasharray: 1, 0;"/></marker></defs></g><g class="edgePath" style="opacity: 1;"><path class="path" d="M650,60L650,64.16666666666667C650,68.33333333333333,650,76.66666666666666,639.7727272727273,84.99999999999999C629.5454545454545,93.33333333333333,609.090909090909,101.66666666666666,598.8636363636363,105.83333333333333L588.6363636363636,110" marker-end="url(http://localhost:63342/booktree/index.html?_ijt=37b2np2to8gdu0ov181kjbl9sn#arrowhead88)" style="fill: none;"/><defs><marker id="arrowhead88" viewBox="0 0 10 10" refX="9" refY="5" markerUnits="strokeWidth" markerWidth="8" markerHeight="6" orient="auto"><path d="M 0 0 L 10 5 L 0 10 z" style="stroke-width: 1; stroke-dasharray: 1, 0;"/></marker></defs></g><g class="edgePath" style="opacity: 1;"><path class="path" d="M110,170L109.99999999999999,174.16666666666666C110,178.33333333333331,110,186.66666666666666,181.66666666666666,198.13271604938274C253.33333333333331,209.59876543209876,396.6666666666667,224.19753086419752,468.3333333333333,231.49691358024688L540,238.7962962962963" marker-end="url(http://localhost:63342/booktree/index.html?_ijt=37b2np2to8gdu0ov181kjbl9sn#arrowhead89)" style="fill: none;"/><defs><marker id="arrowhead89" viewBox="0 0 10 10" refX="9" refY="5" markerUnits="strokeWidth" markerWidth="8" markerHeight="6" orient="auto"><path d="M 0 0 L 10 5 L 0 10 z" style="stroke-width: 1; stroke-dasharray: 1, 0;"/></marker></defs></g><g class="edgePath" style="opacity: 1;"><path class="path" d="M515,170L515,174.16666666666666C515,178.33333333333331,515,186.66666666666666,525.2272727272727,195C535.4545454545455,203.33333333333331,555.9090909090909,211.66666666666666,566.1363636363636,215.83333333333331L576.3636363636364,220" marker-end="url(http://localhost:63342/booktree/index.html?_ijt=37b2np2to8gdu0ov181kjbl9sn#arrowhead90)" style="fill: none;"/><defs><marker id="arrowhead90" viewBox="0 0 10 10" refX="9" refY="5" markerUnits="strokeWidth" markerWidth="8" markerHeight="6" orient="auto"><path d="M 0 0 L 10 5 L 0 10 z" style="stroke-width: 1; stroke-dasharray: 1, 0;"/></marker></defs></g><g class="edgePath" style="opacity: 1;"><path class="path" d="M785,170L784.9999999999998,174.16666666666666C784.9999999999999,178.33333333333331,784.9999999999999,186.66666666666666,774.7727272727271,195C764.5454545454545,203.33333333333331,744.090909090909,211.66666666666666,733.8636363636364,215.83333333333331L723.6363636363636,220" marker-end="url(http://localhost:63342/booktree/index.html?_ijt=37b2np2to8gdu0ov181kjbl9sn#arrowhead91)" style="fill: none;"/><defs><marker id="arrowhead91" viewBox="0 0 10 10" refX="9" refY="5" markerUnits="strokeWidth" markerWidth="8" markerHeight="6" orient="auto"><path d="M 0 0 L 10 5 L 0 10 z" style="stroke-width: 1; stroke-dasharray: 1, 0;"/></marker></defs></g><g class="edgePath" style="opacity: 1;"><path class="path" d="M1055,170L1054.9999999999998,174.16666666666666C1055,178.33333333333331,1055,186.66666666666666,1005.8333333333331,197.5102880658436C956.6666666666665,208.35390946502056,858.3333333333333,221.70781893004113,809.1666666666666,228.38477366255142L760,235.06172839506172" marker-end="url(http://localhost:63342/booktree/index.html?_ijt=37b2np2to8gdu0ov181kjbl9sn#arrowhead92)" style="fill: none;"/><defs><marker id="arrowhead92" viewBox="0 0 10 10" refX="9" refY="5" markerUnits="strokeWidth" markerWidth="8" markerHeight="6" orient="auto"><path d="M 0 0 L 10 5 L 0 10 z" style="stroke-width: 1; stroke-dasharray: 1, 0;"/></marker></defs></g></g><g class="edgeLabels"><g class="edgeLabel" transform="" style="opacity: 1;"><g transform="translate(0,0)" class="label"><text><tspan xml:space="preserve" dy="1em" x="1"/></text></g></g><g class="edgeLabel" transform="" style="opacity: 1;"><g transform="translate(0,0)" class="label"><text><tspan xml:space="preserve" dy="1em" x="1"/></text></g></g><g class="edgeLabel" transform="" style="opacity: 1;"><g transform="translate(0,0)" class="label"><text><tspan xml:space="preserve" dy="1em" x="1"/></text></g></g><g class="edgeLabel" transform="" style="opacity: 1;"><g transform="translate(0,0)" class="label"><text><tspan xml:space="preserve" dy="1em" x="1"/></text></g></g><g class="edgeLabel" transform="" style="opacity: 1;"><g transform="translate(0,0)" class="label"><text><tspan xml:space="preserve" dy="1em" x="1"/></text></g></g><g class="edgeLabel" transform="" style="opacity: 1;"><g transform="translate(0,0)" class="label"><text><tspan xml:space="preserve" dy="1em" x="1"/></text></g></g><g class="edgeLabel" transform="" style="opacity: 1;"><g transform="translate(0,0)" class="label"><text><tspan xml:space="preserve" dy="1em" x="1"/></text></g></g></g><g class="nodes"><g class="node" id="1" transform="translate(110,140)" style="opacity: 1;" data-bind="css: { &quot;can-add-points&quot;: canAddPoints, &quot;has-points&quot;: hasPoints, &quot;has-max-points&quot;: hasMaxPoints }"><rect rx="10" ry="10" x="-110" y="-30" width="220" height="60" style="fill: rgb(236, 240, 241);"/><g class="label" transform="translate(0,0)"><g transform="translate(-137.2734375,-9.5)"><text><tspan xml:space="preserve" dy="1em" x="1">《敏捷软件开发：原则、模式与实践》</tspan></text></g></g></g><g class="node" id="2" transform="translate(110,30)" style="opacity: 1;" data-bind="css: { &quot;can-add-points&quot;: canAddPoints, &quot;has-points&quot;: hasPoints, &quot;has-max-points&quot;: hasMaxPoints }"><rect rx="10" ry="10" x="-110" y="-30" width="220" height="60" style="fill: rgb(236, 240, 241);"/><g class="label" transform="translate(0,0)"><g transform="translate(-104.953125,-9.5)"><text><tspan xml:space="preserve" dy="1em" x="1">《代码管理核心技术及实践》</tspan></text></g></g></g><g class="node" id="3" transform="translate(380,30)" style="opacity: 1;" data-bind="css: { &quot;can-add-points&quot;: canAddPoints, &quot;has-points&quot;: hasPoints, &quot;has-max-points&quot;: hasMaxPoints }"><rect rx="10" ry="10" x="-110" y="-30" width="220" height="60" style="fill: rgb(236, 240, 241);"/><g class="label" transform="translate(0,0)"><g transform="translate(-72.6328125,-9.5)"><text><tspan xml:space="preserve" dy="1em" x="1">《软件测试的艺术》</tspan></text></g></g></g><g class="node" id="5" transform="translate(650,30)" style="opacity: 1;" data-bind="css: { &quot;can-add-points&quot;: canAddPoints, &quot;has-points&quot;: hasPoints, &quot;has-max-points&quot;: hasMaxPoints }"><rect rx="10" ry="10" x="-110" y="-30" width="220" height="60" style="fill: rgb(236, 240, 241);"/><g class="label" transform="translate(0,0)"><g transform="translate(-118.203125,-9.5)"><text><tspan xml:space="preserve" dy="1em" x="1">《Cucumber:行为驱动开发指南》</tspan></text></g></g></g><g class="node" id="6" transform="translate(515,140)" style="opacity: 1;" data-bind="css: { &quot;can-add-points&quot;: canAddPoints, &quot;has-points&quot;: hasPoints, &quot;has-max-points&quot;: hasMaxPoints }"><rect rx="10" ry="10" x="-110" y="-30" width="220" height="60" style="fill: rgb(236, 240, 241);"/><g class="label" transform="translate(0,0)"><g transform="translate(-64.5546875,-9.5)"><text><tspan xml:space="preserve" dy="1em" x="1">《敏捷软件测试》</tspan></text></g></g></g><g class="node" id="7" transform="translate(785,140)" style="opacity: 1;" data-bind="css: { &quot;can-add-points&quot;: canAddPoints, &quot;has-points&quot;: hasPoints, &quot;has-max-points&quot;: hasMaxPoints }"><rect rx="10" ry="10" x="-110" y="-30" width="220" height="60" style="fill: rgb(236, 240, 241);"/><g class="label" transform="translate(0,0)"><g transform="translate(-96.875,-9.5)"><text><tspan xml:space="preserve" dy="1em" x="1">《深入理解软件构造系统》</tspan></text></g></g></g><g class="node" id="8" transform="translate(1055,140)" style="opacity: 1;" data-bind="css: { &quot;can-add-points&quot;: canAddPoints, &quot;has-points&quot;: hasPoints, &quot;has-max-points&quot;: hasMaxPoints }"><rect rx="10" ry="10" x="-110" y="-30" width="220" height="60" style="fill: rgb(236, 240, 241);"/><g class="label" transform="translate(0,0)"><g transform="translate(-80.71875,-9.5)"><text><tspan xml:space="preserve" dy="1em" x="1">《配置管理最佳实践》</tspan></text></g></g></g><g class="node" id="10" transform="translate(650,250)" style="opacity: 1;" data-bind="css: { &quot;can-add-points&quot;: canAddPoints, &quot;has-points&quot;: hasPoints, &quot;has-max-points&quot;: hasMaxPoints }"><rect rx="10" ry="10" x="-110" y="-30" width="220" height="60" style="fill: rgb(236, 240, 241);"/><g class="label" transform="translate(0,0)"><g transform="translate(-139.34375,-9.5)"><text><tspan xml:space="preserve" dy="1em" x="1">《持续交付:发布可靠软件的系统方法》</tspan></text></g></g></g></g></g></g></svg>