<?xml version="1.0" standalone="no"?>
<svg xmlns:xlink="http://www.w3.org/1999/xlink" xmlns="http://www.w3.org/2000/svg" id="code" width="960" height="620"><g><g class="output"><g class="clusters"/><g class="edgePaths"><g class="edgePath" style="opacity: 1;"><path class="path" d="M380,60L379.99999999999994,64.16666666666667C380,68.33333333333333,380,76.66666666666666,379.99999999999994,84.99999999999999C380,93.33333333333333,380,101.66666666666666,379.99999999999994,105.83333333333333L380,110" marker-end="url(http://localhost:63342/booktree/index.html?_ijt=37b2np2to8gdu0ov181kjbl9sn#arrowhead28)" style="fill: none;"/><defs><marker id="arrowhead28" viewBox="0 0 10 10" refX="9" refY="5" markerUnits="strokeWidth" markerWidth="8" markerHeight="6" orient="auto"><path d="M 0 0 L 10 5 L 0 10 z" style="stroke-width: 1; stroke-dasharray: 1, 0;"/></marker></defs></g><g class="edgePath" style="opacity: 1;"><path class="path" d="M110,170L109.99999999999999,174.16666666666666C110,178.33333333333331,110,186.66666666666666,109.99999999999999,195C110,203.33333333333331,110,211.66666666666666,109.99999999999999,215.83333333333331L110,220" marker-end="url(http://localhost:63342/booktree/index.html?_ijt=37b2np2to8gdu0ov181kjbl9sn#arrowhead29)" style="fill: none;"/><defs><marker id="arrowhead29" viewBox="0 0 10 10" refX="9" refY="5" markerUnits="strokeWidth" markerWidth="8" markerHeight="6" orient="auto"><path d="M 0 0 L 10 5 L 0 10 z" style="stroke-width: 1; stroke-dasharray: 1, 0;"/></marker></defs></g><g class="edgePath" style="opacity: 1;"><path class="path" d="M650,60L650,64.16666666666667C650,68.33333333333333,650,76.66666666666666,650,84.99999999999999C650,93.33333333333333,650,101.66666666666666,650,105.83333333333333L650,110" marker-end="url(http://localhost:63342/booktree/index.html?_ijt=37b2np2to8gdu0ov181kjbl9sn#arrowhead30)" style="fill: none;"/><defs><marker id="arrowhead30" viewBox="0 0 10 10" refX="9" refY="5" markerUnits="strokeWidth" markerWidth="8" markerHeight="6" orient="auto"><path d="M 0 0 L 10 5 L 0 10 z" style="stroke-width: 1; stroke-dasharray: 1, 0;"/></marker></defs></g><g class="edgePath" style="opacity: 1;"><path class="path" d="M380,170L379.99999999999994,174.16666666666666C380,178.33333333333331,380,186.66666666666666,390.2272727272727,195C400.45454545454544,203.33333333333331,420.9090909090909,211.66666666666666,431.1363636363636,215.83333333333331L441.3636363636364,220" marker-end="url(http://localhost:63342/booktree/index.html?_ijt=37b2np2to8gdu0ov181kjbl9sn#arrowhead31)" style="fill: none;"/><defs><marker id="arrowhead31" viewBox="0 0 10 10" refX="9" refY="5" markerUnits="strokeWidth" markerWidth="8" markerHeight="6" orient="auto"><path d="M 0 0 L 10 5 L 0 10 z" style="stroke-width: 1; stroke-dasharray: 1, 0;"/></marker></defs></g><g class="edgePath" style="opacity: 1;"><path class="path" d="M650,170L650,174.16666666666666C650,178.33333333333331,650,186.66666666666666,639.7727272727273,195C629.5454545454545,203.33333333333331,609.090909090909,211.66666666666666,598.8636363636363,215.83333333333331L588.6363636363636,220" marker-end="url(http://localhost:63342/booktree/index.html?_ijt=37b2np2to8gdu0ov181kjbl9sn#arrowhead32)" style="fill: none;"/><defs><marker id="arrowhead32" viewBox="0 0 10 10" refX="9" refY="5" markerUnits="strokeWidth" markerWidth="8" markerHeight="6" orient="auto"><path d="M 0 0 L 10 5 L 0 10 z" style="stroke-width: 1; stroke-dasharray: 1, 0;"/></marker></defs></g><g class="edgePath" style="opacity: 1;"><path class="path" d="M110,280L109.99999999999999,284.16666666666663C110,288.3333333333333,110,296.66666666666663,136.66666666666666,306.2654320987654C163.33333333333331,315.8641975308642,216.66666666666666,326.7283950617284,243.33333333333334,332.16049382716045L270,337.5925925925926" marker-end="url(http://localhost:63342/booktree/index.html?_ijt=37b2np2to8gdu0ov181kjbl9sn#arrowhead33)" style="fill: none;"/><defs><marker id="arrowhead33" viewBox="0 0 10 10" refX="9" refY="5" markerUnits="strokeWidth" markerWidth="8" markerHeight="6" orient="auto"><path d="M 0 0 L 10 5 L 0 10 z" style="stroke-width: 1; stroke-dasharray: 1, 0;"/></marker></defs></g><g class="edgePath" style="opacity: 1;"><path class="path" d="M515,280L515,284.16666666666663C515,288.3333333333333,515,296.66666666666663,504.77272727272725,305C494.5454545454545,313.3333333333333,474.090909090909,321.66666666666663,463.86363636363626,325.8333333333333L453.6363636363636,330" marker-end="url(http://localhost:63342/booktree/index.html?_ijt=37b2np2to8gdu0ov181kjbl9sn#arrowhead34)" style="fill: none;"/><defs><marker id="arrowhead34" viewBox="0 0 10 10" refX="9" refY="5" markerUnits="strokeWidth" markerWidth="8" markerHeight="6" orient="auto"><path d="M 0 0 L 10 5 L 0 10 z" style="stroke-width: 1; stroke-dasharray: 1, 0;"/></marker></defs></g><g class="edgePath" style="opacity: 1;"><path class="path" d="M385.45454545454544,440L386.2121212121212,435.83333333333326C386.96969696969694,431.66666666666663,388.4848484848485,423.33333333333326,388.4848484848485,414.99999999999994C388.4848484848485,406.66666666666663,386.96969696969694,398.3333333333333,386.2121212121212,394.16666666666663L385.45454545454544,390" marker-end="url(http://localhost:63342/booktree/index.html?_ijt=37b2np2to8gdu0ov181kjbl9sn#arrowhead35)" style="fill: none;"/><defs><marker id="arrowhead35" viewBox="0 0 10 10" refX="9" refY="5" markerUnits="strokeWidth" markerWidth="8" markerHeight="6" orient="auto"><path d="M 0 0 L 10 5 L 0 10 z" style="stroke-width: 1; stroke-dasharray: 1, 0;"/></marker></defs></g><g class="edgePath" style="opacity: 1;"><path class="path" d="M374.54545454545456,390L373.7878787878788,394.16666666666663C373.030303030303,398.3333333333333,371.5151515151515,406.66666666666663,371.5151515151515,414.99999999999994C371.5151515151515,423.33333333333326,373.030303030303,431.66666666666663,373.7878787878788,435.8333333333333L374.54545454545456,440" marker-end="url(http://localhost:63342/booktree/index.html?_ijt=37b2np2to8gdu0ov181kjbl9sn#arrowhead36)" style="fill: none;"/><defs><marker id="arrowhead36" viewBox="0 0 10 10" refX="9" refY="5" markerUnits="strokeWidth" markerWidth="8" markerHeight="6" orient="auto"><path d="M 0 0 L 10 5 L 0 10 z" style="stroke-width: 1; stroke-dasharray: 1, 0;"/></marker></defs></g></g><g class="edgeLabels"><g class="edgeLabel" transform="" style="opacity: 1;"><g transform="translate(0,0)" class="label"><text><tspan xml:space="preserve" dy="1em" x="1"/></text></g></g><g class="edgeLabel" transform="" style="opacity: 1;"><g transform="translate(0,0)" class="label"><text><tspan xml:space="preserve" dy="1em" x="1"/></text></g></g><g class="edgeLabel" transform="" style="opacity: 1;"><g transform="translate(0,0)" class="label"><text><tspan xml:space="preserve" dy="1em" x="1"/></text></g></g><g class="edgeLabel" transform="" style="opacity: 1;"><g transform="translate(0,0)" class="label"><text><tspan xml:space="preserve" dy="1em" x="1"/></text></g></g><g class="edgeLabel" transform="" style="opacity: 1;"><g transform="translate(0,0)" class="label"><text><tspan xml:space="preserve" dy="1em" x="1"/></text></g></g><g class="edgeLabel" transform="" style="opacity: 1;"><g transform="translate(0,0)" class="label"><text><tspan xml:space="preserve" dy="1em" x="1"/></text></g></g><g class="edgeLabel" transform="" style="opacity: 1;"><g transform="translate(0,0)" class="label"><text><tspan xml:space="preserve" dy="1em" x="1"/></text></g></g><g class="edgeLabel" transform="" style="opacity: 1;"><g transform="translate(0,0)" class="label"><text><tspan xml:space="preserve" dy="1em" x="1"/></text></g></g><g class="edgeLabel" transform="" style="opacity: 1;"><g transform="translate(0,0)" class="label"><text><tspan xml:space="preserve" dy="1em" x="1"/></text></g></g></g><g class="nodes"><g class="node" id="1" transform="translate(380,30)" style="opacity: 1;" data-bind="css: { &quot;can-add-points&quot;: canAddPoints, &quot;has-points&quot;: hasPoints, &quot;has-max-points&quot;: hasMaxPoints }"><rect rx="10" ry="10" x="-110" y="-30" width="220" height="60" style="fill: rgb(236, 240, 241);"/><g class="label" transform="translate(0,0)"><g transform="translate(-64.5546875,-9.5)"><text><tspan xml:space="preserve" dy="1em" x="1">《测试驱动开发》</tspan></text></g></g></g><g class="node" id="2" transform="translate(380,140)" style="opacity: 1;" data-bind="css: { &quot;can-add-points&quot;: canAddPoints, &quot;has-points&quot;: hasPoints, &quot;has-max-points&quot;: hasMaxPoints }"><rect rx="10" ry="10" x="-110" y="-30" width="220" height="60" style="fill: rgb(236, 240, 241);"/><g class="label" transform="translate(0,0)"><g transform="translate(-108.7421875,-9.5)"><text><tspan xml:space="preserve" dy="1em" x="1">《重构: 改善既有代码的设计》</tspan></text></g></g></g><g class="node" id="3" transform="translate(110,140)" style="opacity: 1;" data-bind="css: { &quot;can-add-points&quot;: canAddPoints, &quot;has-points&quot;: hasPoints, &quot;has-max-points&quot;: hasMaxPoints }"><rect rx="10" ry="10" x="-110" y="-30" width="220" height="60" style="fill: rgb(236, 240, 241);"/><g class="label" transform="translate(0,0)"><g transform="translate(-82.5390625,-9.5)"><text><tspan xml:space="preserve" dy="1em" x="1">《Head First设计模式》</tspan></text></g></g></g><g class="node" id="4" transform="translate(110,250)" style="opacity: 1;" data-bind="css: { &quot;can-add-points&quot;: canAddPoints, &quot;has-points&quot;: hasPoints, &quot;has-max-points&quot;: hasMaxPoints }"><rect rx="10" ry="10" x="-110" y="-30" width="220" height="60" style="fill: rgb(236, 240, 241);"/><g class="label" transform="translate(0,0)"><g transform="translate(-64.5546875,-9.5)"><text><tspan xml:space="preserve" dy="1em" x="1">《设计模式解析》</tspan></text></g></g></g><g class="node" id="5" transform="translate(650,30)" style="opacity: 1;" data-bind="css: { &quot;can-add-points&quot;: canAddPoints, &quot;has-points&quot;: hasPoints, &quot;has-max-points&quot;: hasMaxPoints }"><rect rx="10" ry="10" x="-110" y="-30" width="220" height="60" style="fill: rgb(236, 240, 241);"/><g class="label" transform="translate(0,0)"><g transform="translate(-147.8828125,-9.5)"><text><tspan xml:space="preserve" dy="1em" x="1">《易读代码的艺术/编写可读代码的艺术》</tspan></text></g></g></g><g class="node" id="6" transform="translate(650,140)" style="opacity: 1;" data-bind="css: { &quot;can-add-points&quot;: canAddPoints, &quot;has-points&quot;: hasPoints, &quot;has-max-points&quot;: hasMaxPoints }"><rect rx="10" ry="10" x="-110" y="-30" width="220" height="60" style="fill: rgb(236, 240, 241);"/><g class="label" transform="translate(0,0)"><g transform="translate(-64.5546875,-9.5)"><text><tspan xml:space="preserve" dy="1em" x="1">《代码整洁之道》</tspan></text></g></g></g><g class="node" id="7" transform="translate(515,250)" style="opacity: 1;" data-bind="css: { &quot;can-add-points&quot;: canAddPoints, &quot;has-points&quot;: hasPoints, &quot;has-max-points&quot;: hasMaxPoints }"><rect rx="10" ry="10" x="-110" y="-30" width="220" height="60" style="fill: rgb(236, 240, 241);"/><g class="label" transform="translate(0,0)"><g transform="translate(-56.4765625,-9.5)"><text><tspan xml:space="preserve" dy="1em" x="1">《重构与模式》</tspan></text></g></g></g><g class="node" id="8" transform="translate(380,360)" style="opacity: 1;" data-bind="css: { &quot;can-add-points&quot;: canAddPoints, &quot;has-points&quot;: hasPoints, &quot;has-max-points&quot;: hasMaxPoints }"><rect rx="10" ry="10" x="-110" y="-30" width="220" height="60" style="fill: rgb(236, 240, 241);"/><g class="label" transform="translate(0,0)"><g transform="translate(-48.3984375,-9.5)"><text><tspan xml:space="preserve" dy="1em" x="1">《设计模式》</tspan></text></g></g></g><g class="node" id="9" transform="translate(380,470)" style="opacity: 1;" data-bind="css: { &quot;can-add-points&quot;: canAddPoints, &quot;has-points&quot;: hasPoints, &quot;has-max-points&quot;: hasMaxPoints }"><rect rx="10" ry="10" x="-110" y="-30" width="220" height="60" style="fill: rgb(236, 240, 241);"/><g class="label" transform="translate(0,0)"><g transform="translate(-48.3984375,-9.5)"><text><tspan xml:space="preserve" dy="1em" x="1">《元素模式》</tspan></text></g></g></g></g></g></g></svg>