<?xml version="1.0" standalone="no"?>
<svg xmlns:xlink="http://www.w3.org/1999/xlink" xmlns="http://www.w3.org/2000/svg" id="frontend" width="960" height="510"><g><g class="output"><g class="clusters"/><g class="edgePaths"><g class="edgePath" style="opacity: 1;"><path class="path" d="M171.36363636363637,170L161.13636363636365,174.16666666666666C150.9090909090909,178.33333333333331,130.45454545454544,186.66666666666666,120.22727272727272,195C110,203.33333333333331,110,211.66666666666666,109.99999999999999,215.83333333333331L110,220" marker-end="url(http://localhost:63342/booktree/index.html?_ijt=37b2np2to8gdu0ov181kjbl9sn#arrowhead60)" style="fill: none;"/><defs><marker id="arrowhead60" viewBox="0 0 10 10" refX="9" refY="5" markerUnits="strokeWidth" markerWidth="8" markerHeight="6" orient="auto"><path d="M 0 0 L 10 5 L 0 10 z" style="stroke-width: 1; stroke-dasharray: 1, 0;"/></marker></defs></g><g class="edgePath" style="opacity: 1;"><path class="path" d="M110,60L109.99999999999999,64.16666666666667C110,68.33333333333333,110,76.66666666666666,120.22727272727272,84.99999999999999C130.45454545454544,93.33333333333333,150.9090909090909,101.66666666666666,161.13636363636365,105.83333333333333L171.36363636363637,110" marker-end="url(http://localhost:63342/booktree/index.html?_ijt=37b2np2to8gdu0ov181kjbl9sn#arrowhead61)" style="fill: none;"/><defs><marker id="arrowhead61" viewBox="0 0 10 10" refX="9" refY="5" markerUnits="strokeWidth" markerWidth="8" markerHeight="6" orient="auto"><path d="M 0 0 L 10 5 L 0 10 z" style="stroke-width: 1; stroke-dasharray: 1, 0;"/></marker></defs></g><g class="edgePath" style="opacity: 1;"><path class="path" d="M380,60L379.99999999999994,64.16666666666667C380,68.33333333333333,380,76.66666666666666,369.77272727272725,84.99999999999999C359.5454545454545,93.33333333333333,339.09090909090907,101.66666666666666,328.8636363636364,105.83333333333333L318.6363636363636,110" marker-end="url(http://localhost:63342/booktree/index.html?_ijt=37b2np2to8gdu0ov181kjbl9sn#arrowhead62)" style="fill: none;"/><defs><marker id="arrowhead62" viewBox="0 0 10 10" refX="9" refY="5" markerUnits="strokeWidth" markerWidth="8" markerHeight="6" orient="auto"><path d="M 0 0 L 10 5 L 0 10 z" style="stroke-width: 1; stroke-dasharray: 1, 0;"/></marker></defs></g><g class="edgePath" style="opacity: 1;"><path class="path" d="M650,60L650,64.16666666666667C650,68.33333333333333,650,76.66666666666666,650,84.99999999999999C650,93.33333333333333,650,101.66666666666666,650,105.83333333333333L650,110" marker-end="url(http://localhost:63342/booktree/index.html?_ijt=37b2np2to8gdu0ov181kjbl9sn#arrowhead63)" style="fill: none;"/><defs><marker id="arrowhead63" viewBox="0 0 10 10" refX="9" refY="5" markerUnits="strokeWidth" markerWidth="8" markerHeight="6" orient="auto"><path d="M 0 0 L 10 5 L 0 10 z" style="stroke-width: 1; stroke-dasharray: 1, 0;"/></marker></defs></g><g class="edgePath" style="opacity: 1;"><path class="path" d="M318.6363636363636,170L328.8636363636363,174.16666666666666C339.09090909090907,178.33333333333331,359.5454545454545,186.66666666666666,369.77272727272725,195C380,203.33333333333331,380,211.66666666666666,379.99999999999994,215.83333333333331L380,220" marker-end="url(http://localhost:63342/booktree/index.html?_ijt=37b2np2to8gdu0ov181kjbl9sn#arrowhead64)" style="fill: none;"/><defs><marker id="arrowhead64" viewBox="0 0 10 10" refX="9" refY="5" markerUnits="strokeWidth" markerWidth="8" markerHeight="6" orient="auto"><path d="M 0 0 L 10 5 L 0 10 z" style="stroke-width: 1; stroke-dasharray: 1, 0;"/></marker></defs></g><g class="edgePath" style="opacity: 1;"><path class="path" d="M650,170L650,174.16666666666666C650,178.33333333333331,650,186.66666666666666,650,195C650,203.33333333333331,650,211.66666666666666,650,215.83333333333331L650,220" marker-end="url(http://localhost:63342/booktree/index.html?_ijt=37b2np2to8gdu0ov181kjbl9sn#arrowhead65)" style="fill: none;"/><defs><marker id="arrowhead65" viewBox="0 0 10 10" refX="9" refY="5" markerUnits="strokeWidth" markerWidth="8" markerHeight="6" orient="auto"><path d="M 0 0 L 10 5 L 0 10 z" style="stroke-width: 1; stroke-dasharray: 1, 0;"/></marker></defs></g><g class="edgePath" style="opacity: 1;"><path class="path" d="M380,280L379.99999999999994,284.16666666666663C380,288.3333333333333,380,296.66666666666663,406.66666666666663,306.2654320987654C433.3333333333333,315.8641975308642,486.66666666666663,326.7283950617284,513.3333333333333,332.16049382716045L540,337.5925925925926" marker-end="url(http://localhost:63342/booktree/index.html?_ijt=37b2np2to8gdu0ov181kjbl9sn#arrowhead66)" style="fill: none;"/><defs><marker id="arrowhead66" viewBox="0 0 10 10" refX="9" refY="5" markerUnits="strokeWidth" markerWidth="8" markerHeight="6" orient="auto"><path d="M 0 0 L 10 5 L 0 10 z" style="stroke-width: 1; stroke-dasharray: 1, 0;"/></marker></defs></g><g class="edgePath" style="opacity: 1;"><path class="path" d="M650,280L650,284.16666666666663C650,288.3333333333333,650,296.66666666666663,650,305C650,313.3333333333333,650,321.66666666666663,650,325.8333333333333L650,330" marker-end="url(http://localhost:63342/booktree/index.html?_ijt=37b2np2to8gdu0ov181kjbl9sn#arrowhead67)" style="fill: none;"/><defs><marker id="arrowhead67" viewBox="0 0 10 10" refX="9" refY="5" markerUnits="strokeWidth" markerWidth="8" markerHeight="6" orient="auto"><path d="M 0 0 L 10 5 L 0 10 z" style="stroke-width: 1; stroke-dasharray: 1, 0;"/></marker></defs></g><g class="edgePath" style="opacity: 1;"><path class="path" d="M920,280L919.9999999999998,284.16666666666663C919.9999999999999,288.3333333333333,919.9999999999999,296.66666666666663,893.3333333333331,306.2654320987654C866.6666666666665,315.8641975308642,813.3333333333333,326.7283950617284,786.6666666666666,332.16049382716045L760,337.5925925925926" marker-end="url(http://localhost:63342/booktree/index.html?_ijt=37b2np2to8gdu0ov181kjbl9sn#arrowhead68)" style="fill: none;"/><defs><marker id="arrowhead68" viewBox="0 0 10 10" refX="9" refY="5" markerUnits="strokeWidth" markerWidth="8" markerHeight="6" orient="auto"><path d="M 0 0 L 10 5 L 0 10 z" style="stroke-width: 1; stroke-dasharray: 1, 0;"/></marker></defs></g><g class="edgePath" style="opacity: 1;"><path class="path" d="M920,170L919.9999999999998,174.16666666666666C919.9999999999999,178.33333333333331,919.9999999999999,186.66666666666666,919.9999999999998,195C919.9999999999999,203.33333333333331,919.9999999999999,211.66666666666666,919.9999999999998,215.83333333333331L920,220" marker-end="url(http://localhost:63342/booktree/index.html?_ijt=37b2np2to8gdu0ov181kjbl9sn#arrowhead69)" style="fill: none;"/><defs><marker id="arrowhead69" viewBox="0 0 10 10" refX="9" refY="5" markerUnits="strokeWidth" markerWidth="8" markerHeight="6" orient="auto"><path d="M 0 0 L 10 5 L 0 10 z" style="stroke-width: 1; stroke-dasharray: 1, 0;"/></marker></defs></g></g><g class="edgeLabels"><g class="edgeLabel" transform="" style="opacity: 1;"><g transform="translate(0,0)" class="label"><text><tspan xml:space="preserve" dy="1em" x="1"/></text></g></g><g class="edgeLabel" transform="" style="opacity: 1;"><g transform="translate(0,0)" class="label"><text><tspan xml:space="preserve" dy="1em" x="1"/></text></g></g><g class="edgeLabel" transform="" style="opacity: 1;"><g transform="translate(0,0)" class="label"><text><tspan xml:space="preserve" dy="1em" x="1"/></text></g></g><g class="edgeLabel" transform="" style="opacity: 1;"><g transform="translate(0,0)" class="label"><text><tspan xml:space="preserve" dy="1em" x="1"/></text></g></g><g class="edgeLabel" transform="" style="opacity: 1;"><g transform="translate(0,0)" class="label"><text><tspan xml:space="preserve" dy="1em" x="1"/></text></g></g><g class="edgeLabel" transform="" style="opacity: 1;"><g transform="translate(0,0)" class="label"><text><tspan xml:space="preserve" dy="1em" x="1"/></text></g></g><g class="edgeLabel" transform="" style="opacity: 1;"><g transform="translate(0,0)" class="label"><text><tspan xml:space="preserve" dy="1em" x="1"/></text></g></g><g class="edgeLabel" transform="" style="opacity: 1;"><g transform="translate(0,0)" class="label"><text><tspan xml:space="preserve" dy="1em" x="1"/></text></g></g><g class="edgeLabel" transform="" style="opacity: 1;"><g transform="translate(0,0)" class="label"><text><tspan xml:space="preserve" dy="1em" x="1"/></text></g></g><g class="edgeLabel" transform="" style="opacity: 1;"><g transform="translate(0,0)" class="label"><text><tspan xml:space="preserve" dy="1em" x="1"/></text></g></g></g><g class="nodes"><g class="node" id="1" transform="translate(110,30)" style="opacity: 1;" data-bind="css: { &quot;can-add-points&quot;: canAddPoints, &quot;has-points&quot;: hasPoints, &quot;has-max-points&quot;: hasMaxPoints }"><rect rx="10" ry="10" x="-110" y="-30" width="220" height="60" style="fill: rgb(236, 240, 241);"/><g class="label" transform="translate(0,0)"><g transform="translate(-99.7890625,-9.5)"><text><tspan xml:space="preserve" dy="1em" x="1">《JavaScript高级程序设计》</tspan></text></g></g></g><g class="node" id="2" transform="translate(380,30)" style="opacity: 1;" data-bind="css: { &quot;can-add-points&quot;: canAddPoints, &quot;has-points&quot;: hasPoints, &quot;has-max-points&quot;: hasMaxPoints }"><rect rx="10" ry="10" x="-110" y="-30" width="220" height="60" style="fill: rgb(236, 240, 241);"/><g class="label" transform="translate(0,0)"><g transform="translate(-83.625,-9.5)"><text><tspan xml:space="preserve" dy="1em" x="1">《JavaScript权威指南》</tspan></text></g></g></g><g class="node" id="3" transform="translate(110,250)" style="opacity: 1;" data-bind="css: { &quot;can-add-points&quot;: canAddPoints, &quot;has-points&quot;: hasPoints, &quot;has-max-points&quot;: hasMaxPoints }"><rect rx="10" ry="10" x="-110" y="-30" width="220" height="60" style="fill: rgb(236, 240, 241);"/><g class="label" transform="translate(0,0)"><g transform="translate(-99.7890625,-9.5)"><text><tspan xml:space="preserve" dy="1em" x="1">《编写可维护的JavaScript》</tspan></text></g></g></g><g class="node" id="4" transform="translate(245,140)" style="opacity: 1;" data-bind="css: { &quot;can-add-points&quot;: canAddPoints, &quot;has-points&quot;: hasPoints, &quot;has-max-points&quot;: hasMaxPoints }"><rect rx="10" ry="10" x="-110" y="-30" width="220" height="60" style="fill: rgb(236, 240, 241);"/><g class="label" transform="translate(0,0)"><g transform="translate(-83.625,-9.5)"><text><tspan xml:space="preserve" dy="1em" x="1">《JavaScript语言精粹》</tspan></text></g></g></g><g class="node" id="5" transform="translate(650,30)" style="opacity: 1;" data-bind="css: { &quot;can-add-points&quot;: canAddPoints, &quot;has-points&quot;: hasPoints, &quot;has-max-points&quot;: hasMaxPoints }"><rect rx="10" ry="10" x="-110" y="-30" width="220" height="60" style="fill: rgb(236, 240, 241);"/><g class="label" transform="translate(0,0)"><g transform="translate(-50.0078125,-9.5)"><text><tspan xml:space="preserve" dy="1em" x="1">《DOM启蒙》</tspan></text></g></g></g><g class="node" id="6" transform="translate(650,140)" style="opacity: 1;" data-bind="css: { &quot;can-add-points&quot;: canAddPoints, &quot;has-points&quot;: hasPoints, &quot;has-max-points&quot;: hasMaxPoints }"><rect rx="10" ry="10" x="-110" y="-30" width="220" height="60" style="fill: rgb(236, 240, 241);"/><g class="label" transform="translate(0,0)"><g transform="translate(-103.1171875,-9.5)"><text><tspan xml:space="preserve" dy="1em" x="1">《JavaScript DOM编程艺术》</tspan></text></g></g></g><g class="node" id="7" transform="translate(920,140)" style="opacity: 1;" data-bind="css: { &quot;can-add-points&quot;: canAddPoints, &quot;has-points&quot;: hasPoints, &quot;has-max-points&quot;: hasMaxPoints }"><rect rx="10" ry="10" x="-110" y="-30" width="220" height="60" style="fill: rgb(236, 240, 241);"/><g class="label" transform="translate(0,0)"><g transform="translate(-63.2265625,-9.5)"><text><tspan xml:space="preserve" dy="1em" x="1">《CSS权威指南》</tspan></text></g></g></g><g class="node" id="8" transform="translate(380,250)" style="opacity: 1;" data-bind="css: { &quot;can-add-points&quot;: canAddPoints, &quot;has-points&quot;: hasPoints, &quot;has-max-points&quot;: hasMaxPoints }"><rect rx="10" ry="10" x="-110" y="-30" width="220" height="60" style="fill: rgb(236, 240, 241);"/><g class="label" transform="translate(0,0)"><g transform="translate(-85.34375,-9.5)"><text><tspan xml:space="preserve" dy="1em" x="1">《JavaScript 框架设计》</tspan></text></g></g></g><g class="node" id="9" transform="translate(650,250)" style="opacity: 1;" data-bind="css: { &quot;can-add-points&quot;: canAddPoints, &quot;has-points&quot;: hasPoints, &quot;has-max-points&quot;: hasMaxPoints }"><rect rx="10" ry="10" x="-110" y="-30" width="220" height="60" style="fill: rgb(236, 240, 241);"/><g class="label" transform="translate(0,0)"><g transform="translate(-151.3671875,-9.5)"><text><tspan xml:space="preserve" dy="1em" x="1">《单页Web应用: JavaScript从前端到后端》</tspan></text></g></g></g><g class="node" id="10" transform="translate(650,360)" style="opacity: 1;" data-bind="css: { &quot;can-add-points&quot;: canAddPoints, &quot;has-points&quot;: hasPoints, &quot;has-max-points&quot;: hasMaxPoints }"><rect rx="10" ry="10" x="-110" y="-30" width="220" height="60" style="fill: rgb(236, 240, 241);"/><g class="label" transform="translate(0,0)"><g transform="translate(-150.078125,-9.5)"><text><tspan xml:space="preserve" dy="1em" x="1">《基于MVC的JavaScript Web富应用开发》</tspan></text></g></g></g><g class="node" id="11" transform="translate(920,250)" style="opacity: 1;" data-bind="css: { &quot;can-add-points&quot;: canAddPoints, &quot;has-points&quot;: hasPoints, &quot;has-max-points&quot;: hasMaxPoints }"><rect rx="10" ry="10" x="-110" y="-30" width="220" height="60" style="fill: rgb(236, 240, 241);"/><g class="label" transform="translate(0,0)"><g transform="translate(-129.25,-9.5)"><text><tspan xml:space="preserve" dy="1em" x="1">《精通CSS:高级Web标准解决方案》</tspan></text></g></g></g></g></g></g></svg>