<?xml version="1.0" standalone="no"?>
<svg xmlns:xlink="http://www.w3.org/1999/xlink" xmlns="http://www.w3.org/2000/svg" id="lang" width="960" height="510"><g><g class="output"><g class="clusters"/><g class="edgePaths"><g class="edgePath" style="opacity: 1;"><path class="path" d="M110,60L109.99999999999999,64.16666666666667C110,68.33333333333333,110,76.66666666666666,109.99999999999999,84.99999999999999C110,93.33333333333333,110,101.66666666666666,109.99999999999999,105.83333333333333L110,110" marker-end="url(http://localhost:63342/booktree/index.html?_ijt=37b2np2to8gdu0ov181kjbl9sn#arrowhead111)" style="fill: none;"/><defs><marker id="arrowhead111" viewBox="0 0 10 10" refX="9" refY="5" markerUnits="strokeWidth" markerWidth="8" markerHeight="6" orient="auto"><path d="M 0 0 L 10 5 L 0 10 z" style="stroke-width: 1; stroke-dasharray: 1, 0;"/></marker></defs></g><g class="edgePath" style="opacity: 1;"><path class="path" d="M110,170L109.99999999999999,174.16666666666666C110,178.33333333333331,110,186.66666666666666,136.66666666666666,196.26543209876544C163.33333333333331,205.8641975308642,216.66666666666666,216.72839506172838,243.33333333333334,222.16049382716048L270,227.59259259259258" marker-end="url(http://localhost:63342/booktree/index.html?_ijt=37b2np2to8gdu0ov181kjbl9sn#arrowhead112)" style="fill: none;"/><defs><marker id="arrowhead112" viewBox="0 0 10 10" refX="9" refY="5" markerUnits="strokeWidth" markerWidth="8" markerHeight="6" orient="auto"><path d="M 0 0 L 10 5 L 0 10 z" style="stroke-width: 1; stroke-dasharray: 1, 0;"/></marker></defs></g><g class="edgePath" style="opacity: 1;"><path class="path" d="M380,170L379.99999999999994,174.16666666666666C380,178.33333333333331,380,186.66666666666666,379.99999999999994,195C380,203.33333333333331,380,211.66666666666666,379.99999999999994,215.83333333333331L380,220" marker-end="url(http://localhost:63342/booktree/index.html?_ijt=37b2np2to8gdu0ov181kjbl9sn#arrowhead113)" style="fill: none;"/><defs><marker id="arrowhead113" viewBox="0 0 10 10" refX="9" refY="5" markerUnits="strokeWidth" markerWidth="8" markerHeight="6" orient="auto"><path d="M 0 0 L 10 5 L 0 10 z" style="stroke-width: 1; stroke-dasharray: 1, 0;"/></marker></defs></g><g class="edgePath" style="opacity: 1;"><path class="path" d="M650,170L650,174.16666666666666C650,178.33333333333331,650,186.66666666666666,623.3333333333333,196.26543209876544C596.6666666666666,205.8641975308642,543.3333333333333,216.72839506172838,516.6666666666666,222.16049382716048L490,227.59259259259258" marker-end="url(http://localhost:63342/booktree/index.html?_ijt=37b2np2to8gdu0ov181kjbl9sn#arrowhead114)" style="fill: none;"/><defs><marker id="arrowhead114" viewBox="0 0 10 10" refX="9" refY="5" markerUnits="strokeWidth" markerWidth="8" markerHeight="6" orient="auto"><path d="M 0 0 L 10 5 L 0 10 z" style="stroke-width: 1; stroke-dasharray: 1, 0;"/></marker></defs></g><g class="edgePath" style="opacity: 1;"><path class="path" d="M380,280L379.99999999999994,284.16666666666663C380,288.3333333333333,380,296.66666666666663,379.99999999999994,305C380,313.3333333333333,380,321.66666666666663,379.99999999999994,325.8333333333333L380,330" marker-end="url(http://localhost:63342/booktree/index.html?_ijt=37b2np2to8gdu0ov181kjbl9sn#arrowhead115)" style="fill: none;"/><defs><marker id="arrowhead115" viewBox="0 0 10 10" refX="9" refY="5" markerUnits="strokeWidth" markerWidth="8" markerHeight="6" orient="auto"><path d="M 0 0 L 10 5 L 0 10 z" style="stroke-width: 1; stroke-dasharray: 1, 0;"/></marker></defs></g></g><g class="edgeLabels"><g class="edgeLabel" transform="" style="opacity: 1;"><g transform="translate(0,0)" class="label"><text><tspan xml:space="preserve" dy="1em" x="1"/></text></g></g><g class="edgeLabel" transform="" style="opacity: 1;"><g transform="translate(0,0)" class="label"><text><tspan xml:space="preserve" dy="1em" x="1"/></text></g></g><g class="edgeLabel" transform="" style="opacity: 1;"><g transform="translate(0,0)" class="label"><text><tspan xml:space="preserve" dy="1em" x="1"/></text></g></g><g class="edgeLabel" transform="" style="opacity: 1;"><g transform="translate(0,0)" class="label"><text><tspan xml:space="preserve" dy="1em" x="1"/></text></g></g><g class="edgeLabel" transform="" style="opacity: 1;"><g transform="translate(0,0)" class="label"><text><tspan xml:space="preserve" dy="1em" x="1"/></text></g></g></g><g class="nodes"><g class="node" id="1" transform="translate(110,30)" style="opacity: 1;" data-bind="css: { &quot;can-add-points&quot;: canAddPoints, &quot;has-points&quot;: hasPoints, &quot;has-max-points&quot;: hasMaxPoints }"><rect rx="10" ry="10" x="-110" y="-30" width="220" height="60" style="fill: rgb(236, 240, 241);"/><g class="label" transform="translate(0,0)"><g transform="translate(-48.3984375,-9.5)"><text><tspan xml:space="preserve" dy="1em" x="1">《编译原理》</tspan></text></g></g></g><g class="node" id="3" transform="translate(110,140)" style="opacity: 1;" data-bind="css: { &quot;can-add-points&quot;: canAddPoints, &quot;has-points&quot;: hasPoints, &quot;has-max-points&quot;: hasMaxPoints }"><rect rx="10" ry="10" x="-110" y="-30" width="220" height="60" style="fill: rgb(236, 240, 241);"/><g class="label" transform="translate(0,0)"><g transform="translate(-80.71875,-9.5)"><text><tspan xml:space="preserve" dy="1em" x="1">《编程语言实现模式》</tspan></text></g></g></g><g class="node" id="2" transform="translate(650,140)" style="opacity: 1;" data-bind="css: { &quot;can-add-points&quot;: canAddPoints, &quot;has-points&quot;: hasPoints, &quot;has-max-points&quot;: hasMaxPoints }"><rect rx="10" ry="10" x="-110" y="-30" width="220" height="60" style="fill: rgb(236, 240, 241);"/><g class="label" transform="translate(0,0)"><g transform="translate(-48.3984375,-9.5)"><text><tspan xml:space="preserve" dy="1em" x="1">《编程之魂》</tspan></text></g></g></g><g class="node" id="4" transform="translate(380,140)" style="opacity: 1;" data-bind="css: { &quot;can-add-points&quot;: canAddPoints, &quot;has-points&quot;: hasPoints, &quot;has-max-points&quot;: hasMaxPoints }"><rect rx="10" ry="10" x="-110" y="-30" width="220" height="60" style="fill: rgb(236, 240, 241);"/><g class="label" transform="translate(0,0)"><g transform="translate(-57.4375,-9.5)"><text><tspan xml:space="preserve" dy="1em" x="1">《Ruby元编程》</tspan></text></g></g></g><g class="node" id="5" transform="translate(380,250)" style="opacity: 1;" data-bind="css: { &quot;can-add-points&quot;: canAddPoints, &quot;has-points&quot;: hasPoints, &quot;has-max-points&quot;: hasMaxPoints }"><rect rx="10" ry="10" x="-110" y="-30" width="220" height="60" style="fill: rgb(236, 240, 241);"/><g class="label" transform="translate(0,0)"><g transform="translate(-80.71875,-9.5)"><text><tspan xml:space="preserve" dy="1em" x="1">《领域专用语言实战》</tspan></text></g></g></g><g class="node" id="6" transform="translate(380,360)" style="opacity: 1;" data-bind="css: { &quot;can-add-points&quot;: canAddPoints, &quot;has-points&quot;: hasPoints, &quot;has-max-points&quot;: hasMaxPoints }"><rect rx="10" ry="10" x="-110" y="-30" width="220" height="60" style="fill: rgb(236, 240, 241);"/><g class="label" transform="translate(0,0)"><g transform="translate(-64.5546875,-9.5)"><text><tspan xml:space="preserve" dy="1em" x="1">《领域特定语言》</tspan></text></g></g></g></g></g></g></svg>