<?xml version="1.0" standalone="no"?>
<svg xmlns:xlink="http://www.w3.org/1999/xlink" xmlns="http://www.w3.org/2000/svg" id="ml" width="1200" height="620"><g><g class="output"><g class="clusters"/><g class="edgePaths"><g class="edgePath" style="opacity: 1;"><path class="path" d="M110,170L109.99999999999999,174.16666666666666C110,178.33333333333331,110,186.66666666666666,120.22727272727272,195C130.45454545454544,203.33333333333331,150.9090909090909,211.66666666666666,161.13636363636365,215.83333333333331L171.36363636363637,220" marker-end="url(http://localhost:63342/booktree/index.html?_ijt=37b2np2to8gdu0ov181kjbl9sn#arrowhead175)" style="fill: none;"/><defs><marker id="arrowhead175" viewBox="0 0 10 10" refX="9" refY="5" markerUnits="strokeWidth" markerWidth="8" markerHeight="6" orient="auto"><path d="M 0 0 L 10 5 L 0 10 z" style="stroke-width: 1; stroke-dasharray: 1, 0;"/></marker></defs></g><g class="edgePath" style="opacity: 1;"><path class="path" d="M380,170L379.99999999999994,174.16666666666666C380,178.33333333333331,380,186.66666666666666,369.77272727272725,195C359.5454545454545,203.33333333333331,339.09090909090907,211.66666666666666,328.8636363636364,215.83333333333331L318.6363636363636,220" marker-end="url(http://localhost:63342/booktree/index.html?_ijt=37b2np2to8gdu0ov181kjbl9sn#arrowhead176)" style="fill: none;"/><defs><marker id="arrowhead176" viewBox="0 0 10 10" refX="9" refY="5" markerUnits="strokeWidth" markerWidth="8" markerHeight="6" orient="auto"><path d="M 0 0 L 10 5 L 0 10 z" style="stroke-width: 1; stroke-dasharray: 1, 0;"/></marker></defs></g><g class="edgePath" style="opacity: 1;"><path class="path" d="M785,170L784.9999999999998,174.16666666666666C784.9999999999999,178.33333333333331,784.9999999999999,186.66666666666666,784.9999999999998,195C784.9999999999999,203.33333333333331,784.9999999999999,211.66666666666666,784.9999999999998,215.83333333333331L785,220" marker-end="url(http://localhost:63342/booktree/index.html?_ijt=37b2np2to8gdu0ov181kjbl9sn#arrowhead177)" style="fill: none;"/><defs><marker id="arrowhead177" viewBox="0 0 10 10" refX="9" refY="5" markerUnits="strokeWidth" markerWidth="8" markerHeight="6" orient="auto"><path d="M 0 0 L 10 5 L 0 10 z" style="stroke-width: 1; stroke-dasharray: 1, 0;"/></marker></defs></g><g class="edgePath" style="opacity: 1;"><path class="path" d="M239.54545454545453,280L238.78787878787878,284.16666666666663C238.030303030303,288.3333333333333,236.5151515151515,296.66666666666663,235.75757575757572,305C235,313.3333333333333,235,321.66666666666663,234.99999999999997,325.8333333333333L235,330" marker-end="url(http://localhost:63342/booktree/index.html?_ijt=37b2np2to8gdu0ov181kjbl9sn#arrowhead178)" style="fill: none;"/><defs><marker id="arrowhead178" viewBox="0 0 10 10" refX="9" refY="5" markerUnits="strokeWidth" markerWidth="8" markerHeight="6" orient="auto"><path d="M 0 0 L 10 5 L 0 10 z" style="stroke-width: 1; stroke-dasharray: 1, 0;"/></marker></defs></g><g class="edgePath" style="opacity: 1;"><path class="path" d="M1055,60L1054.9999999999998,64.16666666666667C1055,68.33333333333333,1055,76.66666666666666,1054.9999999999998,84.99999999999999C1055,93.33333333333333,1055,101.66666666666666,1054.9999999999998,105.83333333333333L1055,110" marker-end="url(http://localhost:63342/booktree/index.html?_ijt=37b2np2to8gdu0ov181kjbl9sn#arrowhead179)" style="fill: none;"/><defs><marker id="arrowhead179" viewBox="0 0 10 10" refX="9" refY="5" markerUnits="strokeWidth" markerWidth="8" markerHeight="6" orient="auto"><path d="M 0 0 L 10 5 L 0 10 z" style="stroke-width: 1; stroke-dasharray: 1, 0;"/></marker></defs></g><g class="edgePath" style="opacity: 1;"><path class="path" d="M1055,170L1054.9999999999998,174.16666666666666C1055,178.33333333333331,1055,186.66666666666666,1054.9999999999998,195C1055,203.33333333333331,1055,211.66666666666666,1054.9999999999998,215.83333333333331L1055,220" marker-end="url(http://localhost:63342/booktree/index.html?_ijt=37b2np2to8gdu0ov181kjbl9sn#arrowhead180)" style="fill: none;"/><defs><marker id="arrowhead180" viewBox="0 0 10 10" refX="9" refY="5" markerUnits="strokeWidth" markerWidth="8" markerHeight="6" orient="auto"><path d="M 0 0 L 10 5 L 0 10 z" style="stroke-width: 1; stroke-dasharray: 1, 0;"/></marker></defs></g><g class="edgePath" style="opacity: 1;"><path class="path" d="M1055,280L1054.9999999999998,284.16666666666663C1055,288.3333333333333,1055,296.66666666666663,1005.8333333333331,307.5102880658436C956.6666666666665,318.35390946502054,858.3333333333333,331.7078189300411,809.1666666666666,338.3847736625514L760,345.0617283950617" marker-end="url(http://localhost:63342/booktree/index.html?_ijt=37b2np2to8gdu0ov181kjbl9sn#arrowhead181)" style="fill: none;"/><defs><marker id="arrowhead181" viewBox="0 0 10 10" refX="9" refY="5" markerUnits="strokeWidth" markerWidth="8" markerHeight="6" orient="auto"><path d="M 0 0 L 10 5 L 0 10 z" style="stroke-width: 1; stroke-dasharray: 1, 0;"/></marker></defs></g><g class="edgePath" style="opacity: 1;"><path class="path" d="M785,280L784.9999999999998,284.16666666666663C784.9999999999999,288.3333333333333,784.9999999999999,296.66666666666663,774.7727272727271,305C764.5454545454545,313.3333333333333,744.090909090909,321.66666666666663,733.8636363636364,325.8333333333333L723.6363636363636,330" marker-end="url(http://localhost:63342/booktree/index.html?_ijt=37b2np2to8gdu0ov181kjbl9sn#arrowhead182)" style="fill: none;"/><defs><marker id="arrowhead182" viewBox="0 0 10 10" refX="9" refY="5" markerUnits="strokeWidth" markerWidth="8" markerHeight="6" orient="auto"><path d="M 0 0 L 10 5 L 0 10 z" style="stroke-width: 1; stroke-dasharray: 1, 0;"/></marker></defs></g><g class="edgePath" style="opacity: 1;"><path class="path" d="M515,280L515,284.16666666666663C515,288.3333333333333,515,296.66666666666663,525.2272727272727,305C535.4545454545455,313.3333333333333,555.9090909090909,321.66666666666663,566.1363636363636,325.8333333333333L576.3636363636364,330" marker-end="url(http://localhost:63342/booktree/index.html?_ijt=37b2np2to8gdu0ov181kjbl9sn#arrowhead183)" style="fill: none;"/><defs><marker id="arrowhead183" viewBox="0 0 10 10" refX="9" refY="5" markerUnits="strokeWidth" markerWidth="8" markerHeight="6" orient="auto"><path d="M 0 0 L 10 5 L 0 10 z" style="stroke-width: 1; stroke-dasharray: 1, 0;"/></marker></defs></g><g class="edgePath" style="opacity: 1;"><path class="path" d="M313.1818181818182,280L322.6515151515152,284.16666666666663C332.1212121212121,288.3333333333333,351.06060606060606,296.66666666666663,388.8636363636364,306.3988095238095C426.66666666666663,316.13095238095235,483.3333333333333,327.26190476190476,511.6666666666667,332.82738095238096L540,338.39285714285717" marker-end="url(http://localhost:63342/booktree/index.html?_ijt=37b2np2to8gdu0ov181kjbl9sn#arrowhead184)" style="fill: none;"/><defs><marker id="arrowhead184" viewBox="0 0 10 10" refX="9" refY="5" markerUnits="strokeWidth" markerWidth="8" markerHeight="6" orient="auto"><path d="M 0 0 L 10 5 L 0 10 z" style="stroke-width: 1; stroke-dasharray: 1, 0;"/></marker></defs></g><g class="edgePath" style="opacity: 1;"><path class="path" d="M650,390L650,394.16666666666663C650,398.3333333333333,650,406.66666666666663,650,414.99999999999994C650,423.33333333333326,650,431.66666666666663,650,435.8333333333333L650,440" marker-end="url(http://localhost:63342/booktree/index.html?_ijt=37b2np2to8gdu0ov181kjbl9sn#arrowhead185)" style="fill: none;"/><defs><marker id="arrowhead185" viewBox="0 0 10 10" refX="9" refY="5" markerUnits="strokeWidth" markerWidth="8" markerHeight="6" orient="auto"><path d="M 0 0 L 10 5 L 0 10 z" style="stroke-width: 1; stroke-dasharray: 1, 0;"/></marker></defs></g></g><g class="edgeLabels"><g class="edgeLabel" transform="" style="opacity: 1;"><g transform="translate(0,0)" class="label"><text><tspan xml:space="preserve" dy="1em" x="1"/></text></g></g><g class="edgeLabel" transform="" style="opacity: 1;"><g transform="translate(0,0)" class="label"><text><tspan xml:space="preserve" dy="1em" x="1"/></text></g></g><g class="edgeLabel" transform="" style="opacity: 1;"><g transform="translate(0,0)" class="label"><text><tspan xml:space="preserve" dy="1em" x="1"/></text></g></g><g class="edgeLabel" transform="" style="opacity: 1;"><g transform="translate(0,0)" class="label"><text><tspan xml:space="preserve" dy="1em" x="1"/></text></g></g><g class="edgeLabel" transform="" style="opacity: 1;"><g transform="translate(0,0)" class="label"><text><tspan xml:space="preserve" dy="1em" x="1"/></text></g></g><g class="edgeLabel" transform="" style="opacity: 1;"><g transform="translate(0,0)" class="label"><text><tspan xml:space="preserve" dy="1em" x="1"/></text></g></g><g class="edgeLabel" transform="" style="opacity: 1;"><g transform="translate(0,0)" class="label"><text><tspan xml:space="preserve" dy="1em" x="1"/></text></g></g><g class="edgeLabel" transform="" style="opacity: 1;"><g transform="translate(0,0)" class="label"><text><tspan xml:space="preserve" dy="1em" x="1"/></text></g></g><g class="edgeLabel" transform="" style="opacity: 1;"><g transform="translate(0,0)" class="label"><text><tspan xml:space="preserve" dy="1em" x="1"/></text></g></g><g class="edgeLabel" transform="" style="opacity: 1;"><g transform="translate(0,0)" class="label"><text><tspan xml:space="preserve" dy="1em" x="1"/></text></g></g><g class="edgeLabel" transform="" style="opacity: 1;"><g transform="translate(0,0)" class="label"><text><tspan xml:space="preserve" dy="1em" x="1"/></text></g></g></g><g class="nodes"><g class="node" id="1" transform="translate(110,140)" style="opacity: 1;" data-bind="css: { &quot;can-add-points&quot;: canAddPoints, &quot;has-points&quot;: hasPoints, &quot;has-max-points&quot;: hasMaxPoints }"><rect rx="10" ry="10" x="-110" y="-30" width="220" height="60" style="fill: rgb(236, 240, 241);"/><g class="label" transform="translate(0,0)"><g transform="translate(-75.21875,-9.5)"><text><tspan xml:space="preserve" dy="1em" x="1">《Hadoop权威指南》</tspan></text></g></g></g><g class="node" id="2" transform="translate(380,140)" style="opacity: 1;" data-bind="css: { &quot;can-add-points&quot;: canAddPoints, &quot;has-points&quot;: hasPoints, &quot;has-max-points&quot;: hasMaxPoints }"><rect rx="10" ry="10" x="-110" y="-30" width="220" height="60" style="fill: rgb(236, 240, 241);"/><g class="label" transform="translate(0,0)"><g transform="translate(-104.34375,-9.5)"><text><tspan xml:space="preserve" dy="1em" x="1">《利用Python进行数据分析》</tspan></text></g></g></g><g class="node" id="3" transform="translate(245,250)" style="opacity: 1;" data-bind="css: { &quot;can-add-points&quot;: canAddPoints, &quot;has-points&quot;: hasPoints, &quot;has-max-points&quot;: hasMaxPoints }"><rect rx="10" ry="10" x="-110" y="-30" width="220" height="60" style="fill: rgb(236, 240, 241);"/><g class="label" transform="translate(0,0)"><g transform="translate(-56.4765625,-9.5)"><text><tspan xml:space="preserve" dy="1em" x="1">《可视化数据》</tspan></text></g></g></g><g class="node" id="4" transform="translate(515,250)" style="opacity: 1;" data-bind="css: { &quot;can-add-points&quot;: canAddPoints, &quot;has-points&quot;: hasPoints, &quot;has-max-points&quot;: hasMaxPoints }"><rect rx="10" ry="10" x="-110" y="-30" width="220" height="60" style="fill: rgb(236, 240, 241);"/><g class="label" transform="translate(0,0)"><g transform="translate(-56.4765625,-9.5)"><text><tspan xml:space="preserve" dy="1em" x="1">《贝叶斯思维》</tspan></text></g></g></g><g class="node" id="5" transform="translate(785,250)" style="opacity: 1;" data-bind="css: { &quot;can-add-points&quot;: canAddPoints, &quot;has-points&quot;: hasPoints, &quot;has-max-points&quot;: hasMaxPoints }"><rect rx="10" ry="10" x="-110" y="-30" width="220" height="60" style="fill: rgb(236, 240, 241);"/><g class="label" transform="translate(0,0)"><g transform="translate(-64.5546875,-9.5)"><text><tspan xml:space="preserve" dy="1em" x="1">《集体智慧编程》</tspan></text></g></g></g><g class="node" id="7" transform="translate(785,140)" style="opacity: 1;" data-bind="css: { &quot;can-add-points&quot;: canAddPoints, &quot;has-points&quot;: hasPoints, &quot;has-max-points&quot;: hasMaxPoints }"><rect rx="10" ry="10" x="-110" y="-30" width="220" height="60" style="fill: rgb(236, 240, 241);"/><g class="label" transform="translate(0,0)"><g transform="translate(-48.3984375,-9.5)"><text><tspan xml:space="preserve" dy="1em" x="1">《推荐系统》</tspan></text></g></g></g><g class="node" id="8" transform="translate(235,360)" style="opacity: 1;" data-bind="css: { &quot;can-add-points&quot;: canAddPoints, &quot;has-points&quot;: hasPoints, &quot;has-max-points&quot;: hasMaxPoints }"><rect rx="10" ry="10" x="-110" y="-30" width="220" height="60" style="fill: rgb(236, 240, 241);"/><g class="label" transform="translate(0,0)"><g transform="translate(-72.6328125,-9.5)"><text><tspan xml:space="preserve" dy="1em" x="1">《数据可视化实战》</tspan></text></g></g></g><g class="node" id="9" transform="translate(1055,140)" style="opacity: 1;" data-bind="css: { &quot;can-add-points&quot;: canAddPoints, &quot;has-points&quot;: hasPoints, &quot;has-max-points&quot;: hasMaxPoints }"><rect rx="10" ry="10" x="-110" y="-30" width="220" height="60" style="fill: rgb(236, 240, 241);"/><g class="label" transform="translate(0,0)"><g transform="translate(-139.34375,-9.5)"><text><tspan xml:space="preserve" dy="1em" x="1">《驾驭文本:文本的发现、组织和处理》</tspan></text></g></g></g><g class="node" id="10" transform="translate(1055,30)" style="opacity: 1;" data-bind="css: { &quot;can-add-points&quot;: canAddPoints, &quot;has-points&quot;: hasPoints, &quot;has-max-points&quot;: hasMaxPoints }"><rect rx="10" ry="10" x="-110" y="-30" width="220" height="60" style="fill: rgb(236, 240, 241);"/><g class="label" transform="translate(0,0)"><g transform="translate(-71.546875,-9.5)"><text><tspan xml:space="preserve" dy="1em" x="1">《Lucene in Action》</tspan></text></g></g></g><g class="node" id="11" transform="translate(1055,250)" style="opacity: 1;" data-bind="css: { &quot;can-add-points&quot;: canAddPoints, &quot;has-points&quot;: hasPoints, &quot;has-max-points&quot;: hasMaxPoints }"><rect rx="10" ry="10" x="-110" y="-30" width="220" height="60" style="fill: rgb(236, 240, 241);"/><g class="label" transform="translate(0,0)"><g transform="translate(-88.1875,-9.5)"><text><tspan xml:space="preserve" dy="1em" x="1">《Python自然语言处理》</tspan></text></g></g></g><g class="node" id="12" transform="translate(650,360)" style="opacity: 1;" data-bind="css: { &quot;can-add-points&quot;: canAddPoints, &quot;has-points&quot;: hasPoints, &quot;has-max-points&quot;: hasMaxPoints }"><rect rx="10" ry="10" x="-110" y="-30" width="220" height="60" style="fill: rgb(236, 240, 241);"/><g class="label" transform="translate(0,0)"><g transform="translate(-64.5546875,-9.5)"><text><tspan xml:space="preserve" dy="1em" x="1">《机器学习实战》</tspan></text></g></g></g><g class="node" id="13" transform="translate(650,470)" style="opacity: 1;" data-bind="css: { &quot;can-add-points&quot;: canAddPoints, &quot;has-points&quot;: hasPoints, &quot;has-max-points&quot;: hasMaxPoints }"><rect rx="10" ry="10" x="-110" y="-30" width="220" height="60" style="fill: rgb(236, 240, 241);"/><g class="label" transform="translate(0,0)"><g transform="translate(-98.9453125,-9.5)"><text><tspan xml:space="preserve" dy="1em" x="1">《机器学习:实用案例解析》</tspan></text></g></g></g></g></g></g></svg>